<svg width="20" height="21" viewBox="0 0 20 21" fill="none" xmlns="http://www.w3.org/2000/svg">
<path d="M12.5 0.634C12.652 0.546232 12.8245 0.500026 13 0.500026C13.1755 0.500026 13.348 0.546232 13.5 0.634L19.5 4.098C19.652 4.18577 19.7782 4.312 19.866 4.46401C19.9538 4.61603 20 4.78847 20 4.964V19.5C20 19.7652 19.8946 20.0196 19.7071 20.2071C19.5196 20.3946 19.2652 20.5 19 20.5H13C12.7348 20.5 12.4804 20.3946 12.2929 20.2071C12.1054 20.0196 12 19.7652 12 19.5V1.5C12 1.32447 12.0462 1.15203 12.134 1.00001C12.2217 0.848 12.348 0.721766 12.5 0.634ZM14 3.232V18.5H18V5.541L14 3.232ZM1 20.5C0.734784 20.5 0.48043 20.3946 0.292893 20.2071C0.105357 20.0196 0 19.7652 0 19.5V1.5C0 1.23478 0.105357 0.98043 0.292893 0.792893C0.48043 0.605357 0.734784 0.5 1 0.5C1.26522 0.5 1.51957 0.605357 1.70711 0.792893C1.89464 0.98043 2 1.23478 2 1.5V19.5C2 19.7652 1.89464 20.0196 1.70711 20.2071C1.51957 20.3946 1.26522 20.5 1 20.5ZM7 20.5C6.73478 20.5 6.48043 20.3946 6.29289 20.2071C6.10536 20.0196 6 19.7652 6 19.5V1.5C6 1.23478 6.10536 0.98043 6.29289 0.792893C6.48043 0.605357 6.73478 0.5 7 0.5C7.26522 0.5 7.51957 0.605357 7.70711 0.792893C7.89464 0.98043 8 1.23478 8 1.5V19.5C8 19.7652 7.89464 20.0196 7.70711 20.2071C7.51957 20.3946 7.26522 20.5 7 20.5Z" fill="white" fill-opacity="0.7"/>
</svg>
