<svg width="19" height="19" viewBox="0 0 19 19" fill="none" xmlns="http://www.w3.org/2000/svg">
<path d="M9.84375 5C10.1544 5 10.4062 5.25184 10.4062 5.5625V8.9375H13.7812C14.0919 8.9375 14.3438 9.18934 14.3438 9.5C14.3438 9.81066 14.0919 10.0625 13.7812 10.0625H10.4062V13.4375C10.4062 13.7482 10.1544 14 9.84375 14C9.53309 14 9.28125 13.7482 9.28125 13.4375V10.0625H5.90625C5.59559 10.0625 5.34375 9.81066 5.34375 9.5C5.34375 9.18934 5.59559 8.9375 5.90625 8.9375H9.28125V5.5625C9.28125 5.25184 9.53309 5 9.84375 5Z" fill="#A7A7A7"/>
</svg>
