<svg width="43" height="44" viewBox="0 0 43 44" fill="none" xmlns="http://www.w3.org/2000/svg">
<path id="Vector" d="M34.1293 19.5048C27.2177 15.2937 15.8143 14.905 9.21433 16.9602C8.83304 17.0779 8.42504 17.0773 8.04409 16.9585C7.66314 16.8397 7.32713 16.6082 7.08033 16.2947C6.82846 15.9783 6.67379 15.5956 6.63507 15.1931C6.59634 14.7906 6.67523 14.3854 6.86217 14.0268C7.1115 13.5465 7.5405 13.1835 8.05017 13.0222C15.6255 10.6627 28.2168 11.1192 36.1772 15.9647C36.4622 16.1421 36.7002 16.3857 36.8709 16.6748C37.0417 16.9638 37.1401 17.2899 37.1579 17.6251C37.1758 17.9604 37.1124 18.295 36.9733 18.6005C36.8341 18.9061 36.6233 19.1735 36.3587 19.3802C36.1489 19.5415 35.9089 19.6591 35.6529 19.7262C35.3969 19.7933 35.1301 19.8084 34.8682 19.7707C34.6078 19.734 34.3548 19.6423 34.1293 19.5048ZM33.902 25.7418C33.7892 25.9318 33.6399 26.0977 33.4627 26.2298C33.2856 26.362 33.0841 26.4578 32.8698 26.5118C32.656 26.5643 32.4338 26.5732 32.2164 26.5379C31.9991 26.5027 31.7911 26.4239 31.6048 26.3065C25.8408 22.671 17.0537 21.6187 10.2337 23.7435C9.91557 23.8418 9.57516 23.8413 9.25735 23.7421C8.93954 23.6429 8.65926 23.4497 8.4535 23.188C8.24468 22.9241 8.11662 22.6054 8.08474 22.2704C8.05287 21.9353 8.11853 21.5982 8.27383 21.2997C8.48005 20.9001 8.83593 20.5982 9.26383 20.46C17.0518 18.0345 26.7355 19.2097 33.3538 23.3842C33.7333 23.6291 34.0028 24.0119 34.1055 24.4518C34.2081 24.8917 34.1339 25.3542 33.902 25.7418ZM31.2803 31.7313C31.1907 31.8841 31.0716 32.0175 30.93 32.1239C30.7883 32.2302 30.627 32.3074 30.4553 32.351C30.2841 32.3938 30.106 32.4013 29.9317 32.3733C29.7574 32.3453 29.5907 32.2822 29.4415 32.1878C24.4035 29.0308 18.0675 28.3177 10.6022 30.0685C10.3425 30.1289 10.0705 30.109 9.82237 30.0114C9.57422 29.9139 9.36154 29.7433 9.2125 29.5222C9.1112 29.3755 9.03957 29.2105 9.00167 29.0363C8.92114 28.6834 8.98166 28.3131 9.17033 28.0042C9.26292 27.8523 9.38459 27.7201 9.52837 27.6154C9.67215 27.5106 9.8352 27.4353 10.0082 27.3937C18.1757 25.4778 25.1827 26.3028 30.8367 29.8467C31.1395 30.0429 31.3546 30.3488 31.4369 30.7001C31.5193 31.0514 31.4643 31.4209 31.2803 31.7313ZM21.4427 0C9.60117 0 0 9.8505 0 22C0 34.1513 9.59933 44 21.4445 44C33.2878 44 42.8908 34.1513 42.8908 22C42.8908 9.8505 33.2878 0 21.4427 0Z" fill="black"/>
</svg>
