<svg width="39" height="39" viewBox="0 0 39 39" fill="none" xmlns="http://www.w3.org/2000/svg">
<path d="M0 19.2919C0 29.9198 8.77954 38.6993 19.4074 38.6993C30.0353 38.6993 38.8148 29.9198 38.8148 19.2919C38.8148 8.66402 30.0353 0 19.4074 0C8.77954 0 0 8.66402 0 19.2919ZM26.5697 28.3025C22.0644 25.53 16.2884 24.8369 9.58818 26.3386C7.9709 26.5697 7.73986 24.2593 9.1261 24.0282C16.5194 22.2954 22.7575 23.1041 27.8404 26.2231C29.1111 27.0317 27.8404 28.9956 26.5697 28.3025ZM28.5335 23.1041C23.3351 19.8695 15.3642 18.9453 9.24162 20.7937C7.27778 21.3713 6.58466 18.3677 8.43298 17.9056C15.4797 15.8263 24.1437 16.866 30.1508 20.5626C31.7681 21.6023 30.1508 24.1437 28.5335 23.1041ZM8.31746 14.9021C6.35362 15.5952 5.08289 12.2452 7.27778 11.4365C14.0935 9.35714 25.6455 9.7037 32.8078 13.978C34.7716 15.0176 32.9233 18.2522 30.8439 17.097C24.6058 13.4004 14.209 13.0538 8.31746 14.9021Z" fill="white"/>
</svg>
